<?xml version="1.0" standalone="no"?>
<!DOCTYPE svg PUBLIC "-//W3C//DTD SVG 20010904//EN"
 "http://www.w3.org/TR/2001/REC-SVG-20010904/DTD/svg10.dtd">
<svg version="1.0" xmlns="http://www.w3.org/2000/svg"
 width="1999.000000pt" height="498.000000pt" viewBox="0 0 1999.000000 498.000000"
 preserveAspectRatio="xMidYMid meet">

<g transform="translate(0.000000,498.000000) scale(0.100000,-0.100000)"
fill="#000000" stroke="none">
<path d="M13708 3682 c-37 -35 -42 -45 -45 -93 -7 -98 58 -163 156 -156 48 3
58 8 93 45 34 37 38 47 38 94 0 92 -56 148 -148 148 -47 0 -57 -4 -94 -38z"/>
<path d="M4787 3704 c-4 -4 -7 -328 -7 -721 l0 -713 120 0 120 0 2 308 3 307
313 3 312 2 0 -310 0 -310 125 0 125 0 -2 718 -3 717 -120 0 -120 0 -3 -304
-2 -304 -92 7 c-50 3 -192 6 -314 6 l-224 0 -2 298 -3 297 -111 3 c-60 1 -113
-1 -117 -4z"/>
<path d="M10980 3623 c-43 -119 -112 -309 -170 -473 -26 -74 -96 -268 -155
-430 -59 -162 -120 -330 -136 -372 l-28 -78 128 0 129 0 36 108 c21 59 47 133
58 165 l21 57 274 0 c210 0 275 -3 278 -12 2 -7 28 -82 57 -165 l53 -153 128
0 c70 0 127 3 127 7 0 7 -75 216 -345 958 l-170 470 -127 3 -126 3 -32 -88z
m170 -267 c0 -2 39 -116 86 -252 47 -137 88 -259 91 -271 l5 -23 -196 0 c-108
0 -196 2 -196 5 0 4 85 247 152 433 22 61 45 112 49 112 5 0 9 -2 9 -4z"/>
<path d="M15088 3393 l-3 -148 -72 -3 -73 -3 0 -99 0 -100 75 0 75 0 0 -280
c0 -252 2 -285 19 -330 27 -72 60 -111 122 -145 52 -29 58 -30 186 -30 79 0
136 4 143 11 7 7 6 38 -4 102 -7 51 -15 95 -18 97 -2 3 -20 0 -39 -5 -53 -16
-94 -12 -123 11 -53 42 -56 58 -56 323 l0 245 113 3 112 3 0 95 0 95 -112 3
-113 3 0 149 0 150 -115 0 -114 0 -3 -147z"/>
<path d="M17930 3391 l0 -150 -72 -3 -73 -3 0 -95 0 -95 72 -3 71 -3 4 -282
c4 -264 6 -286 27 -339 44 -112 142 -168 290 -168 69 1 157 12 165 21 2 2 -3
48 -12 102 -14 93 -16 98 -36 92 -54 -16 -104 -17 -134 -1 -59 30 -62 48 -62
326 l0 250 110 0 110 0 0 100 0 100 -110 0 -109 0 -3 148 -3 147 -117 3 -118
3 0 -150z"/>
<path d="M6550 3264 c-306 -35 -493 -315 -426 -635 57 -266 309 -426 592 -376
107 20 185 59 260 132 122 120 171 301 134 496 -31 164 -161 310 -318 359 -59
19 -182 31 -242 24z m187 -235 c54 -26 107 -88 127 -147 18 -51 21 -178 6
-232 -15 -55 -65 -127 -107 -153 -131 -82 -303 -40 -377 93 -29 52 -31 61 -31
165 0 103 2 113 29 163 40 72 98 115 181 136 37 9 130 -5 172 -25z"/>
<path d="M7687 3259 c-52 -12 -96 -36 -133 -71 l-32 -30 -7 41 -7 41 -109 0
-109 0 0 -485 0 -485 120 0 120 0 0 318 c0 355 2 367 73 429 87 77 242 56 295
-40 15 -28 18 -74 22 -367 l5 -335 118 -3 117 -3 0 318 c0 289 2 322 19 358
37 80 93 115 185 116 105 2 168 -55 186 -167 6 -32 10 -186 10 -341 l0 -283
110 0 110 0 0 353 c0 381 -4 416 -55 497 -64 101 -157 145 -310 145 -89 0
-106 -3 -158 -28 -35 -18 -75 -49 -104 -81 l-46 -53 -31 41 c-43 56 -100 93
-171 111 -64 16 -158 18 -218 4z"/>
<path d="M9314 3255 c-173 -37 -313 -179 -354 -360 -17 -72 -14 -229 5 -299
58 -215 241 -355 466 -356 123 0 281 63 355 142 38 41 84 108 84 125 0 18
-193 90 -198 73 -10 -29 -80 -95 -122 -113 -97 -44 -241 -21 -314 48 -32 31
-65 98 -66 133 l0 22 370 0 370 0 0 91 c0 157 -42 270 -136 369 -66 69 -132
107 -221 125 -84 17 -160 17 -239 0z m232 -206 c68 -32 122 -116 124 -191 l0
-28 -244 0 c-135 0 -247 4 -250 9 -3 5 1 32 10 60 18 62 73 127 129 152 58 27
171 26 231 -2z"/>
<path d="M12143 3260 c-110 -23 -201 -90 -239 -177 -26 -59 -24 -177 3 -229
49 -92 131 -140 343 -199 114 -31 145 -56 145 -114 0 -75 -75 -119 -183 -108
-68 7 -117 38 -134 83 -11 32 -16 35 -43 30 -176 -29 -175 -29 -175 -50 1 -33
38 -108 73 -144 88 -93 276 -134 435 -97 162 38 249 126 260 262 6 79 -15 140
-72 201 -53 58 -108 84 -252 122 -125 32 -159 50 -184 92 -19 35 -4 94 32 121
39 29 124 34 173 11 32 -15 66 -54 78 -88 4 -11 207 36 207 49 0 5 -11 33 -24
60 -29 64 -101 128 -173 155 -62 23 -205 34 -270 20z"/>
<path d="M13020 3260 c-156 -33 -251 -143 -252 -289 -1 -85 24 -142 81 -194
52 -47 99 -67 255 -112 98 -28 126 -40 149 -65 33 -37 35 -77 5 -115 -72 -92
-270 -64 -303 43 -6 20 -12 23 -38 19 -151 -25 -177 -32 -177 -42 0 -31 35
-107 64 -142 108 -125 370 -161 550 -74 57 28 128 106 144 159 21 68 15 152
-14 210 -44 89 -118 134 -300 182 -135 36 -180 63 -189 114 -15 76 54 132 152
124 60 -5 100 -29 123 -74 8 -16 16 -31 17 -33 1 -2 47 7 102 20 112 25 113
27 82 94 -26 58 -106 128 -175 154 -66 25 -207 35 -276 21z"/>
<path d="M14390 3261 c-97 -18 -183 -74 -226 -147 -23 -38 -29 -63 -32 -130
-4 -70 -1 -89 17 -128 43 -87 124 -138 303 -187 128 -36 162 -52 177 -86 37
-82 -31 -153 -147 -153 -82 1 -162 51 -162 103 0 16 -6 18 -52 12 -29 -4 -78
-12 -108 -19 -52 -12 -55 -14 -52 -42 5 -45 52 -122 93 -155 89 -70 231 -102
369 -81 198 28 300 127 300 289 0 163 -82 240 -319 302 -165 43 -201 69 -201
143 0 23 3 38 6 35 4 -3 15 4 25 17 27 34 72 49 130 44 57 -6 97 -31 119 -74
8 -16 16 -31 17 -33 1 -2 47 7 103 19 116 27 119 31 70 118 -55 94 -160 149
-303 156 -45 3 -102 1 -127 -3z"/>
<path d="M16050 3264 c-123 -22 -187 -51 -251 -111 -46 -43 -96 -110 -88 -118
2 -2 40 -24 83 -50 l79 -47 40 47 c59 69 105 89 207 90 68 0 92 -4 120 -21 54
-31 80 -77 80 -140 l0 -52 -202 -4 c-230 -5 -267 -14 -343 -81 -68 -59 -90
-114 -89 -222 0 -73 4 -99 23 -137 62 -128 225 -198 391 -170 81 14 154 48
198 92 l31 31 6 -38 c4 -21 8 -44 10 -50 3 -10 35 -13 116 -13 111 0 111 0
104 23 -3 12 -9 168 -11 347 -6 347 -12 395 -59 470 -37 58 -101 103 -195 135
-45 16 -203 28 -250 19z m275 -621 c-10 -82 -32 -128 -77 -167 -49 -42 -112
-60 -182 -53 -102 10 -146 53 -146 141 0 34 6 52 27 77 43 51 72 58 237 59
l148 0 -7 -57z"/>
<path d="M17193 3260 c-62 -13 -124 -43 -165 -79 -39 -34 -48 -29 -48 30 l0
29 -110 0 -110 0 0 -485 0 -485 114 0 115 0 4 303 c2 201 7 314 15 339 16 46
83 113 130 130 20 7 64 12 98 12 79 -1 144 -36 177 -97 21 -41 22 -52 25 -364
l3 -323 120 0 119 0 0 294 c0 162 -5 330 -10 373 -20 149 -98 258 -216 303
-63 23 -198 34 -261 20z"/>
<path d="M13690 2755 l0 -485 115 0 115 0 0 485 0 485 -115 0 -115 0 0 -485z"/>
<path d="M10730 1590 l0 -380 75 0 75 0 0 380 0 380 -75 0 -75 0 0 -380z"/>
<path d="M11770 1905 c-5 -14 -61 -168 -124 -343 -63 -174 -118 -325 -121
-334 -6 -16 1 -18 78 -18 l84 0 24 80 23 80 131 0 131 0 25 -77 25 -78 83 -3
c83 -3 83 -3 77 20 -3 13 -59 174 -124 358 l-118 335 -92 3 c-91 3 -92 2 -102
-23z m145 -264 c20 -69 39 -130 42 -138 4 -10 -15 -13 -92 -13 -73 0 -96 3
-92 13 3 6 24 76 48 154 28 90 46 136 50 125 4 -9 24 -73 44 -141z"/>
<path d="M8570 1565 l0 -355 205 0 205 0 0 65 0 65 -130 0 -130 0 0 290 0 290
-75 0 -75 0 0 -355z"/>
<path d="M9240 1720 c-66 -14 -130 -58 -165 -114 -28 -46 -30 -57 -30 -140 0
-79 3 -97 25 -135 14 -24 41 -57 60 -72 47 -38 146 -63 213 -54 157 21 237
111 237 265 -1 152 -83 240 -235 254 -33 3 -80 1 -105 -4z m139 -126 c31 -22
51 -73 51 -129 0 -96 -42 -145 -123 -145 -37 0 -53 5 -72 24 -63 63 -51 220
19 255 33 15 99 13 125 -5z"/>
<path d="M9873 1720 c-129 -27 -202 -112 -211 -245 -4 -58 0 -80 18 -123 25
-57 73 -106 129 -130 45 -19 172 -21 224 -3 l37 13 0 58 0 59 -35 -15 c-45
-19 -118 -18 -156 2 -20 10 -38 32 -51 61 -27 62 -18 122 26 171 30 32 40 36
93 40 43 3 69 0 91 -12 l32 -17 0 65 c0 58 -2 64 -23 70 -47 11 -133 15 -174
6z"/>
<path d="M10325 1723 c-16 -2 -54 -11 -82 -19 l-53 -15 0 -54 c0 -30 1 -55 3
-55 1 0 24 7 51 15 63 19 155 19 183 0 11 -8 23 -24 26 -35 6 -23 2 -24 -117
-40 -106 -14 -158 -44 -181 -104 -35 -92 6 -182 93 -205 60 -17 119 -4 162 36
21 18 40 33 44 33 3 0 6 -16 6 -35 l0 -35 70 0 70 0 0 160 c0 199 -11 253 -59
301 -48 48 -118 65 -216 52z m135 -285 c0 -36 -23 -88 -45 -102 -32 -21 -93
-21 -117 1 -37 33 -15 87 40 99 15 3 32 7 37 9 27 9 85 4 85 -7z"/>
<path d="M12483 1720 c-129 -27 -202 -112 -211 -245 -4 -58 0 -80 18 -123 25
-57 73 -106 129 -130 45 -19 172 -21 224 -3 l37 13 0 58 0 59 -35 -15 c-45
-19 -118 -18 -156 2 -20 10 -38 32 -51 61 -27 62 -18 122 26 171 30 32 40 36
93 40 43 3 69 0 91 -12 l32 -17 0 65 c0 58 -2 64 -23 70 -47 11 -133 15 -174
6z"/>
<path d="M12973 1720 c-129 -27 -202 -112 -211 -245 -4 -58 0 -80 18 -123 25
-57 73 -106 129 -130 45 -19 172 -21 224 -3 l37 13 0 58 0 59 -35 -15 c-45
-19 -118 -18 -156 2 -20 10 -38 32 -51 61 -27 62 -18 122 26 171 30 32 40 36
93 40 43 3 69 0 91 -12 l32 -17 0 65 c0 58 -2 64 -23 70 -47 11 -133 15 -174
6z"/>
<path d="M13443 1721 c-48 -12 -119 -58 -144 -92 -46 -66 -63 -193 -35 -272
43 -118 164 -175 315 -147 103 19 111 24 111 87 0 29 -1 53 -2 53 -2 0 -21 -7
-43 -15 -87 -31 -209 -13 -235 34 -21 40 -15 41 155 41 l165 0 0 58 c0 154
-71 243 -205 256 -27 3 -64 1 -82 -3z m122 -136 c14 -13 25 -36 25 -50 l0 -25
-95 0 c-60 0 -95 4 -95 10 0 20 30 69 47 79 34 20 92 13 118 -14z"/>
<path d="M13942 1720 c-93 -20 -142 -72 -142 -153 0 -72 42 -110 168 -151 67
-22 85 -51 51 -79 -21 -16 -35 -19 -99 -14 -41 3 -85 9 -97 12 -22 7 -23 5
-23 -48 0 -55 0 -56 38 -68 20 -7 74 -13 119 -13 138 2 223 62 223 160 0 55
-32 94 -102 123 -113 47 -127 54 -133 69 -3 8 3 24 12 35 16 17 27 19 106 14
l87 -4 0 52 c0 46 -3 53 -22 58 -49 12 -145 15 -186 7z"/>
<path d="M14392 1720 c-93 -20 -142 -72 -142 -153 0 -72 42 -110 168 -151 67
-22 85 -51 51 -79 -21 -16 -35 -19 -99 -14 -41 3 -85 9 -97 12 -22 7 -23 5
-23 -48 0 -55 0 -56 38 -68 20 -7 74 -13 119 -13 138 2 223 62 223 160 0 55
-32 94 -102 123 -113 47 -127 54 -133 69 -3 8 3 24 12 35 16 17 27 19 106 14
l87 -4 0 52 c0 46 -3 53 -22 58 -49 12 -145 15 -186 7z"/>
</g>
</svg>
